<mxfile host="app.diagrams.net" modified="2023-05-19T17:30:28.074Z" agent="Mozilla/5.0 (Macintosh; Intel Mac OS X 10_15_7) AppleWebKit/605.1.15 (KHTML, like Gecko) Version/16.4 Safari/605.1.15" version="21.3.2" etag="po_xVdW4bmhY9dDOtB1P" type="github">
  <diagram name="Сторінка-1" id="WjSxfeM1EKT3kVEZ-Qok">
    <mxGraphModel>
      <root>
        <mxCell id="0" />
        <mxCell id="1" parent="0" />
      </root>
    </mxGraphModel>
  </diagram>
</mxfile>
